<svg width="200" height="200" viewBox="0 0 200 200" xmlns="http://www.w3.org/2000/svg">
  <defs>
    <!-- Paw Print Outline -->
    <g id="paw" stroke-width="3" stroke-linecap="round" stroke-linejoin="round" fill="none">
      <path d="M0,15 C-15,15 -20,0 -20,-10 C-20,-20 -10,-25 0,-20 C10,-25 20,-20 20,-10 C20,0 15,15 0,15 Z" />
      <path d="M-25,-20 C-35,-20 -35,-35 -25,-35 C-15,-35 -15,-20 -25,-20 Z" />
      <path d="M-10,-35 C-20,-35 -20,-50 -10,-50 C0,-50 0,-35 -10,-35 Z" />
      <path d="M10,-35 C20,-35 20,-50 10,-50 C0,-50 0,-35 10,-35 Z" />
      <path d="M25,-20 C35,-20 35,-35 25,-35 C15,-35 15,-20 25,-20 Z" />
    </g>

    <!-- Cat Nose & Whiskers Outline -->
    <g id="cat" stroke-width="3" stroke-linecap="round" stroke-linejoin="round" fill="none">
      <!-- Heart-ish nose -->
      <path d="M0,0 Q-10,-10 -20,0 Q-10,10 0,20 Q10,10 20,0 Q10,-10 0,0 Z" />
      <!-- Mouth -->
      <path d="M0,20 L0,30" />
      <path d="M0,30 Q-15,45 -30,30" />
      <path d="M0,30 Q15,45 30,30" />
      <!-- Whiskers Left -->
      <path d="M-30,10 Q-50,5 -70,10" />
      <path d="M-30,20 Q-50,20 -70,20" />
      <path d="M-30,30 Q-50,35 -70,30" />
      <!-- Whiskers Right -->
      <path d="M30,10 Q50,5 70,10" />
      <path d="M30,20 Q50,20 70,20" />
      <path d="M30,30 Q50,35 70,30" />
    </g>

    <!-- Bone Outline -->
    <g id="bone" stroke-width="3" stroke-linecap="round" stroke-linejoin="round" fill="none">
      <path d="M -20,-10 L 20,-10 C 35,-10 35,-30 45,-20 C 55,-10 55,10 45,20 C 35,30 35,10 20,10 L -20,10 C -35,10 -35,30 -45,20 C -55,10 -55,-10 -45,-20 C -35,-30 -35,-10 -20,-10 Z" />
    </g>
  </defs>

  <!-- Group for scaling down the entire pattern to fit the 200x200 box nicely -->
  <g transform="scale(0.5) translate(50, 50)">
    <!-- Pattern Placements with explicit hex colors instead of rgba since some CSS engines drop it in background-image -->
    <use href="#paw" transform="translate(80, 80) rotate(-15)" stroke="#93E4C1" opacity="0.4" />
    <use href="#cat" transform="translate(320, 100) scale(0.8)" stroke="#FF7B54" opacity="0.4" />
    <use href="#bone" transform="translate(120, 320) rotate(-25)" stroke="#FFD56F" opacity="0.4" />
    
    <use href="#paw" transform="translate(260, 260) rotate(30) scale(0.6)" stroke="#FFD56F" opacity="0.4" />
    <use href="#bone" transform="translate(300, -20) rotate(45) scale(0.8)" stroke="#93E4C1" opacity="0.4" />
    <use href="#cat" transform="translate(-20, 260) rotate(15) scale(0.6)" stroke="#FF7B54" opacity="0.4" />
  </g>
</svg>
