<svg width="200" height="200" xmlns="http://www.w3.org/2000/svg">
  <!-- Bone -->
  <path d="M40 25c-5.5 0-10 4.5-10 10 0 3.8 2.1 7.1 5.3 8.8C34.4 45.4 33 48.4 33 52c0 8.3 6.7 15 15 15 3.6 0 6.6-1.4 8.2-2.3 1.7 3.2 5 5.3 8.8 5.3 5.5 0 10-4.5 10-10 0-5.5-4.5-10-10-10-1.6 0-3.1 0.4-4.5 1.1-1.3-3.6-4.5-6.5-8.5-7.6V42c0-8.3-6.7-15-15-15-3.6 0-6.6 1.4-8.2 2.3C27.9 26.1 24.6 24 20.8 24c-5.5 0-10 4.5-10 10zM140 120" fill="rgba(255,123,84,0.06)"/>
  
  <!-- Paw -->
  <path d="M150 70c-6.6 0-12 5.4-12 12s5.4 12 12 12 12-5.4 12-12-5.4-12-12-12zm-30-20c-5.5 0-10 4.5-10 10s4.5 10 10 10 10-4.5 10-10-4.5-10-10-10zm60 0c-5.5 0-10 4.5-10 10s4.5 10 10 10 10-4.5 10-10-4.5-10-10-10zm-30 35c-16.5 0-30 13.5-30 30 0 5.4 1.4 10.4 3.9 14.8C108.3 134 116.5 140 126 142.5c4.7 1.2 9.6 2.5 15 2.5 11 0 21.3-4.5 28.5-12C175.5 127.3 180 117 180 106c0-16.5-13.5-30-30-30z" fill="rgba(147,228,193,0.08)"/>

  <!-- Small fish/toy -->
  <path d="M20 150c0 0 10-10 25-10s25 10 25 10-10 10-25 10-25-10-25-10zm0 0l-15-10v20l15-10z" fill="rgba(255,213,111,0.08)"/>

  <!-- Another Bone smaller -->
  <path d="M120 180c-2.7 0-5 2.2-5 5 0 1.9 1 3.5 2.6 4.4-0.4 0.8-1.1 2.3-1.1 4.1 0 4.1 3.3 7.5 7.5 7.5 1.8 0 3.3-0.7 4.1-1.1 0.8 1.6 2.5 2.6 4.4 2.6 2.7 0 5-2.2 5-5 0-2.7-2.2-5-5-5-0.8 0-1.5 0.2-2.2 0.5-0.6-1.8-2.2-3.2-4.2-3.7v-1.1c0-4.1-3.3-7.5-7.5-7.5-1.8 0-3.3 0.7-4.1 1.1-0.9-1.6-2.5-2.6-4.4-2.6-2.7 0-5 2.2-5 5z" fill="rgba(255,123,84,0.06)" transform="rotate(45 120 180)"/>
</svg>
